<svg id="Layer_1" data-name="Layer 1" xmlns="http://www.w3.org/2000/svg" viewBox="0 0 96.3 100"><defs><style>.cls-1{fill:#3b82f6;}.cls-2{fill:#513bf6;}</style></defs><path class="cls-1" d="M14.5,47.54c1.19-17.83,15.21-32,32.57-32.54h1.09a32.75,32.75,0,0,1,15.47,3.89L74.43,8.1a47.07,47.07,0,0,0-14-6.47A46.49,46.49,0,0,0,48.13,0C21.56,0,0,22.37,0,50A51.88,51.88,0,0,0,1.16,60.9,51.27,51.27,0,0,0,6.84,75.68l41.32-55Z" transform="translate(0 0)"/><path class="cls-2" d="M88.26,22.34a49.42,49.42,0,0,0-9.5-10.95L14.81,86.07Z" transform="translate(0 0)"/><path class="cls-1" d="M48.16,85a32.5,32.5,0,0,1-13.52-2.92l-10.95,11A47,47,0,0,0,48.13,100C74.74,100,96.3,77.6,96.3,50a49.33,49.33,0,0,0-.69-8.4,50.72,50.72,0,0,0-5.09-15.35L48.16,79.32,81.42,55.79C79,70.91,67.21,82.77,52.49,84.72A33,33,0,0,1,48.16,85Z" transform="translate(0 0)"/></svg>